# xmcd
#
# Track frame offsets: 
#        150
#        6558
#        28096
#        36566
#        66199
#        118067
#        145708
#        182495
#        216614
#        222402
#        236724
#        240402
#
# Disc length: 3363 seconds
#
# Revision: 1
# Processed by: cddbd v1.5.2PL0 Copyright (c) Steve Scherf et al.
# Submitted via: ExactAudioCopy v1.2
#
DISCID=ba0d210c
DTITLE=Borbély Mihály Quartet - Hommage a Kodály
DYEAR=2009
DGENRE=Jazz
TTITLE0=The Music Begins
TTITLE1=Marosszék
TTITLE2=Evening by the Campfire
TTITLE3=Nocturne - Transylvania Blues
TTITLE4=Sonata for Solo Cello, 3rd Movement
TTITLE5=Tilinkós, Kodály's Own
TTITLE6=Sonatina
TTITLE7=The Shepherd of Hope
TTITLE8=Epigram No. 3
TTITLE9=Passacaglia
TTITLE10=Epigram No. 5
TTITLE11=Recruit
EXTD=YEAR: 2009
EXTT0=
EXTT1=
EXTT2=
EXTT3=
EXTT4=
EXTT5=
EXTT6=
EXTT7=
EXTT8=
EXTT9=
EXTT10=
EXTT11=
PLAYORDER=
